<mxfile host="app.diagrams.net" agent="Mozilla/5.0 (Windows NT 10.0; Win64; x64) AppleWebKit/537.36 (KHTML, like Gecko) Chrome/138.0.0.0 Safari/537.36 Edg/138.0.0.0" version="28.0.6">
  <diagram name="Page-1" id="_UoyWwWmCUEIKrKWOpFx">
    <mxGraphModel dx="778" dy="460" grid="1" gridSize="10" guides="1" tooltips="1" connect="1" arrows="1" fold="1" page="1" pageScale="1" pageWidth="850" pageHeight="1100" math="0" shadow="0">
      <root>
        <mxCell id="0" />
        <mxCell id="1" parent="0" />
        <mxCell id="KTxi6SYoISCqPY_30RHT-1" value="" style="rounded=1;whiteSpace=wrap;html=1;" vertex="1" parent="1">
          <mxGeometry x="250" y="60" width="250" height="320" as="geometry" />
        </mxCell>
        <mxCell id="KTxi6SYoISCqPY_30RHT-2" value="" style="rounded=1;whiteSpace=wrap;html=1;" vertex="1" parent="1">
          <mxGeometry x="280" y="80" width="185" height="100" as="geometry" />
        </mxCell>
        <mxCell id="KTxi6SYoISCqPY_30RHT-3" value="" style="rounded=1;whiteSpace=wrap;html=1;" vertex="1" parent="1">
          <mxGeometry x="280" y="250" width="185" height="110" as="geometry" />
        </mxCell>
        <mxCell id="KTxi6SYoISCqPY_30RHT-4" value="" style="shape=flexArrow;endArrow=classic;html=1;rounded=0;endWidth=18;endSize=10.78;entryX=0.5;entryY=0;entryDx=0;entryDy=0;exitX=0.5;exitY=1;exitDx=0;exitDy=0;" edge="1" parent="1" source="KTxi6SYoISCqPY_30RHT-2" target="KTxi6SYoISCqPY_30RHT-3">
          <mxGeometry width="50" height="50" relative="1" as="geometry">
            <mxPoint x="130" y="300" as="sourcePoint" />
            <mxPoint x="180" y="250" as="targetPoint" />
          </mxGeometry>
        </mxCell>
      </root>
    </mxGraphModel>
  </diagram>
</mxfile>
